<svg
  xmlns="http://www.w3.org/2000/svg"
  viewBox="80 0 713 712"
  fill="none"
>
  <rect x="80.9473" width="711.679" height="711.679" rx="100" fill="#002992" />
  <g clip-path="url(#bamboo-icon-clip)">
    <path
      d="M579.252 461.107C579.252 461.107 593.756 442.484 618.192 435.723V399.354C615.142 404.751 610.632 411.868 602.455 424.712C589.246 445.464 579.252 461.107 579.252 461.107Z"
      fill="white"
    />
    <path
      d="M496.105 498.031V431.395C496.105 428.171 495.401 424.99 494.08 422.018C493.706 421.175 493.35 420.263 493.037 419.29C492.681 418.195 492.411 417.152 492.212 416.179C492.064 415.44 492.186 414.666 492.629 414.041C492.733 413.902 492.846 413.754 492.994 413.624C493.541 413.102 494.289 412.789 495.123 412.789H523.766C525.425 412.789 526.781 414.067 526.781 415.648C526.625 416.761 526.39 417.986 526.016 419.298C525.738 420.254 525.425 421.158 525.086 421.992C523.852 425.042 523.175 428.275 523.175 431.543V498.213C523.175 499.232 524.035 500.012 525.054 500.012H531.458C536.4 500.012 540.407 496.006 540.407 491.063V449.479C540.407 446.212 539.738 442.979 538.495 439.929C538.156 439.094 537.844 438.199 537.565 437.235C537.192 435.923 536.948 434.697 536.801 433.585C536.801 432.003 538.148 430.726 539.816 430.726H568.459C569.293 430.726 570.04 431.047 570.588 431.56C570.736 431.699 570.849 431.838 570.953 431.977C571.396 432.603 571.518 433.376 571.37 434.115C571.17 435.088 570.91 436.131 570.545 437.226C570.232 438.199 569.875 439.103 569.493 439.955C568.172 442.927 567.468 446.107 567.468 449.331V468.681C567.468 470.919 570.724 471.182 571.083 468.973C571.089 468.937 571.09 468.94 571.094 468.903C571.211 467.777 577.733 406.414 614.537 373.427C616.798 371.4 618.201 368.554 618.201 365.517V233.016C618.201 223.249 610.285 215.332 600.517 215.332H570.087C568.862 215.332 567.816 216.271 567.816 217.496V284.167C567.816 287.399 568.476 290.589 569.702 293.595C570.049 294.447 570.371 295.36 570.649 296.342C571.022 297.654 571.266 298.879 571.414 299.991C571.414 301.573 570.067 302.85 568.398 302.85H539.755C538.921 302.85 538.174 302.529 537.626 302.016C537.479 301.877 537.366 301.738 537.261 301.599C536.818 300.973 536.696 300.2 536.844 299.461C537.044 298.488 537.305 297.445 537.67 296.35C537.957 295.472 538.278 294.638 538.608 293.865C539.964 290.728 540.737 287.391 540.737 283.993V217.357C540.737 216.208 539.762 215.332 538.614 215.332H532.3C527.255 215.332 523.166 219.422 523.166 224.466V265.926C523.166 269.159 523.826 272.348 525.052 275.355C525.399 276.206 525.721 277.119 525.999 278.101C526.373 279.413 526.616 280.638 526.764 281.751C526.764 283.332 525.417 284.61 523.748 284.61H495.105C494.271 284.61 493.524 284.288 492.976 283.776C492.829 283.637 492.716 283.497 492.611 283.358C492.168 282.733 492.047 281.959 492.194 281.221C492.394 280.247 492.655 279.205 493.02 278.11C493.307 277.232 493.628 276.398 493.958 275.624C495.314 272.487 496.087 269.15 496.087 265.752V225.332C496.087 219.809 491.61 215.332 486.087 215.332H277.47C267.702 215.332 259.785 223.249 259.785 233.016V337.135C259.785 342.658 264.262 347.135 269.785 347.135H337.197C341.994 347.135 345.887 351.029 345.887 355.826V359.51C345.887 364.307 341.994 368.2 337.197 368.2H269.785C264.262 368.2 259.785 372.677 259.785 378.2V482.319C259.785 492.087 267.702 500.004 277.47 500.004H494.034C495.153 500.004 496.105 499.151 496.105 498.031ZM538.713 324.476C538.717 324.473 538.72 324.468 538.717 324.463C538.345 323.622 537.99 322.713 537.67 321.743C537.313 320.648 537.044 319.605 536.844 318.632C536.696 317.893 536.818 317.12 537.261 316.494C537.366 316.355 537.479 316.207 537.626 316.077C538.174 315.555 538.921 315.243 539.755 315.243H568.398C570.058 315.243 571.414 316.52 571.414 318.102C571.257 319.214 571.022 320.439 570.649 321.751C570.371 322.707 570.058 323.611 569.719 324.445C568.485 327.496 567.807 330.728 567.807 333.996V400.667C567.807 403.899 568.468 407.089 569.693 410.095C570.04 410.947 570.362 411.86 570.64 412.842C571.014 414.154 571.257 415.379 571.405 416.491C571.405 418.073 570.058 419.35 568.389 419.35H539.747C538.912 419.35 538.165 419.029 537.618 418.516C537.47 418.377 537.357 418.238 537.253 418.099C536.809 417.473 536.688 416.7 536.835 415.961C537.035 414.988 537.296 413.945 537.661 412.85C537.948 411.972 538.269 411.138 538.6 410.365C539.955 407.228 540.729 403.891 540.729 400.493V333.857C540.729 330.636 540.026 327.459 538.708 324.489C538.706 324.484 538.708 324.478 538.713 324.476ZM480.093 334.53C480.095 334.531 480.094 334.533 480.092 334.533C463.891 332.827 449.627 325.008 439.41 317.615C433.527 313.36 428.603 309.046 424.646 304.975C423.562 303.86 421.828 303.095 421.499 301.577C421.431 301.259 421.443 300.938 421.543 300.643C421.761 300 422.386 299.531 423.134 299.392C432.809 298.72 441.551 300.218 449.202 302.816C451.623 303.638 462.483 292.788 461.11 290.632C446.814 268.177 443.703 263.232 440.071 254.351C436.622 245.936 434.599 238.61 433.392 233.502C433.266 232.97 433.07 232.454 432.989 231.913C432.924 231.476 432.938 230.939 433.24 230.505C433.892 229.575 435.726 229.323 437.281 230.505C484.518 259.689 492.35 333.64 492.471 334.807C492.475 334.844 492.475 334.84 492.481 334.876C492.84 337.084 496.096 336.821 496.096 334.584V315.234C496.096 312.01 495.392 308.829 494.071 305.857C493.698 305.014 493.341 304.102 493.02 303.129C492.664 302.034 492.394 300.991 492.194 300.017C492.047 299.279 492.168 298.505 492.611 297.88C492.716 297.741 492.829 297.593 492.976 297.463C493.524 296.941 494.271 296.628 495.105 296.628H523.748C525.408 296.628 526.764 297.906 526.764 299.487C526.607 300.6 526.373 301.825 525.999 303.137C525.721 304.093 525.408 304.997 525.069 305.831C523.835 308.881 523.157 312.114 523.157 315.382V382.052C523.157 385.285 523.818 388.474 525.043 391.481C525.391 392.333 525.712 393.245 525.99 394.227C526.364 395.539 526.607 396.765 526.755 397.877C526.755 399.459 525.408 400.736 523.739 400.736H495.097C494.262 400.736 493.515 400.415 492.968 399.902C492.82 399.763 492.707 399.624 492.603 399.485C492.159 398.859 492.038 398.086 492.186 397.347C492.385 396.374 492.646 395.331 493.011 394.236C493.298 393.358 493.619 392.524 493.95 391.751C494.211 391.136 494.452 390.521 494.673 389.894C494.728 389.735 494.702 389.514 494.642 389.357C494.625 389.316 494.638 389.352 494.63 389.308C494.384 387.918 486.987 346.146 485.312 340.557C483.667 335.071 480.323 334.556 480.093 334.527C480.091 334.527 480.091 334.53 480.093 334.53Z"
      fill="white"
    />
    <path
      d="M583.458 468.606C583.458 468.606 579.93 468.945 578.227 474.637C577.401 477.383 575.194 488.872 573.134 500.004H600.5C610.267 500.004 618.184 492.087 618.184 482.319V455.728C608.677 461.724 596.711 467.216 583.449 468.606H583.458Z"
      fill="white"
    />
  </g>
  <defs>
    <clipPath id="bamboo-icon-clip">
      <rect
        width="358.407"
        height="284.672"
        fill="white"
        transform="translate(259.785 215.332)"
      />
    </clipPath>
  </defs>
</svg>
